<svg fill="none" viewBox="0 0 40 33" xmlns="http://www.w3.org/2000/svg" >
  <path d="M1.2 15c0-.9.6-1.5 1.4-1.5h34.6c.8 0 1.4.6 1.4 1.4v15c0 .8-.6 1.4-1.4 1.4H2.6c-.8 0-1.4-.6-1.4-1.4V15Z" fill="#000" fill-opacity=".2" />
  <path clip-rule="evenodd" d="M2.6 12.3h34.6c1.4 0 2.6 1.2 2.6 2.6v15c0 1.4-1.2 2.6-2.6 2.6H2.6A2.6 2.6 0 0 1 0 29.9V15c0-1.4 1.2-2.6 2.6-2.6Zm0 1.2c-.8 0-1.4.6-1.4 1.4v15c0 .8.6 1.4 1.4 1.4h34.6c.8 0 1.4-.6 1.4-1.4V15c0-.8-.6-1.4-1.4-1.4H2.6Z" fill="#fff" fill-rule="evenodd" />
  <path d="M1.2 21c0-.8.6-1.5 1.4-1.5h34.6c.8 0 1.4.7 1.4 1.5v9c0 .7-.6 1.3-1.4 1.3H2.6c-.8 0-1.4-.6-1.4-1.4v-9Z" fill="#000" fill-opacity=".4" />
  <path clip-rule="evenodd" d="M2.6 18.4h34.6c1.4 0 2.6 1.1 2.6 2.6v9c0 1.3-1.2 2.5-2.6 2.5H2.6A2.6 2.6 0 0 1 0 29.9v-9c0-1.4 1.2-2.5 2.6-2.5Zm0 1.1c-.8 0-1.4.7-1.4 1.5v9c0 .7.6 1.3 1.4 1.3h34.6c.8 0 1.4-.6 1.4-1.4v-9c0-.7-.6-1.4-1.4-1.4H2.6Z" fill="#fff" fill-rule="evenodd" />
  <path d="M1.2 27c0-.8.6-1.4 1.4-1.4h34.6c.8 0 1.4.6 1.4 1.4v3c0 .7-.6 1.3-1.4 1.3H2.6c-.8 0-1.4-.6-1.4-1.4V27Z" fill="#000" fill-opacity=".5" />
  <path clip-rule="evenodd" d="M2.6 24.4h34.6c1.4 0 2.6 1.2 2.6 2.6v3c0 1.3-1.2 2.5-2.6 2.5H2.6A2.6 2.6 0 0 1 0 29.9V27c0-1.4 1.2-2.6 2.6-2.6Zm0 1.2c-.8 0-1.4.6-1.4 1.4v3c0 .7.6 1.3 1.4 1.3h34.6c.8 0 1.4-.6 1.4-1.4V27c0-.8-.6-1.4-1.4-1.4H2.6Z" fill="#fff" fill-rule="evenodd" />
  <path clip-rule="evenodd" d="M3.7.5a2.6 2.6 0 0 0-2.5 2.6v26.8c0 .8.6 1.4 1.4 1.4h34.6c.8 0 1.4-.6 1.4-1.4V3.1c0-1.4-1.1-2.6-2.6-2.6H3.7Zm28.4 2.6a3.6 3.6 0 0 0 0 7.2h.3a3.6 3.6 0 0 0 0-7.2h-.3Z" fill="#000" fill-opacity=".2" fill-rule="evenodd" />
</svg>