<svg fill="none" height="26" viewBox="0 0 86 26" width="86" xmlns="http://www.w3.org/2000/svg">
    <path
        d="M17.2463 0H0V4.33328H17.2463C18.6069 4.33328 19.7101 5.3035 19.7101 6.49997V8.66667H7.54247C3.37686 8.66667 0 11.6261 0 15.2768V25.9999H4.92753V15.8101L17.3978 25.9994H24.6387L8.7278 12.9999H19.7101V8.68775H24.6387V6.49997C24.6387 2.91012 21.328 0 17.2463 0Z"
        fill="white" />
    <path d="M33.1856 0H28.2368V25.9999H33.1856V0Z" fill="white" />
    <path
        d="M36.8108 8.61542C36.8108 12.2053 40.1215 15.1154 44.2032 15.1154H52.5487C53.9093 15.1154 55.0124 16.0923 55.0124 17.2889L55.0123 19.4999C55.0123 20.6965 53.9091 21.6666 52.5486 21.6666H36.8108V25.9999H52.5486C56.6304 25.9999 59.941 23.0898 59.941 19.4999L59.9411 17.2889C59.9411 13.699 56.6305 10.7889 52.5487 10.7889H44.2032C42.8427 10.7889 41.7395 9.81201 41.7395 8.61542L41.7396 6.49997C41.7396 5.3035 42.8428 4.33328 44.2034 4.33328H58.4326V0H44.2034C40.1215 0 36.8109 2.91012 36.8109 6.49997L36.8108 8.61542Z"
        fill="white" />
    <path
        d="M62.6989 6.49997L62.6988 8.68775H67.6275L67.6276 6.49997C67.6276 5.3035 68.7308 4.33328 70.0914 4.33328H86V0H70.0914C66.0095 0 62.6989 2.91012 62.6989 6.49997Z"
        fill="white" />
    <path
        d="M70.2621 10.7889H84.3243V15.1154L70.2621 15.1222C68.9015 15.1222 67.7984 16.0923 67.7984 17.2889L67.7984 19.5C67.7984 20.6965 68.9016 21.6666 70.2622 21.6666H86V26H70.2622C66.1804 26 62.8697 23.0898 62.8697 19.5L62.8696 17.2889C62.8696 13.6989 66.1803 10.7889 70.2621 10.7889Z"
        fill="white" />
</svg>
