<svg xmlns="http://www.w3.org/2000/svg" xmlns:xlink="http://www.w3.org/1999/xlink" fill="none" viewBox="0 0 52 52">
  <defs>
    <path id="a" fill="#fff" fill-opacity=".4" d="M42.281 35.165c.735 0 1.332.596 1.332 1.331v2.663a1.33 1.33 0 0 1-1.332 1.331h-31.95A1.332 1.332 0 0 1 9 39.158v-2.682a1.33 1.33 0 0 1 1.33-1.311h31.951Zm.002-5.592c.735 0 1.331.596 1.331 1.331v3.6a2.387 2.387 0 0 0-1.333-.404h-31.95c-.493 0-.95.148-1.331.403v-3.599c0-.735.596-1.33 1.331-1.33h31.952Z"/>
    <path id="b" fill="#fff" fill-opacity=".5" d="M9 36.496c0-.735.596-1.331 1.331-1.331h31.952c.735 0 1.331.596 1.331 1.331v2.663c0 .735-.596 1.331-1.331 1.331H10.33A1.331 1.331 0 0 1 9 39.16v-2.663Z"/>
  </defs>
  <path fill="#2E7CF6" d="M0 0h52v52H0z"/>
  <use xlink:href="#a" fill-opacity=".4"/>
  <use xlink:href="#b" fill-opacity=".5"/>
  <path fill="#fff" fill-opacity=".3" d="M42.281 23.981c.735 0 1.332.596 1.332 1.331v3.601a2.385 2.385 0 0 0-1.332-.404h-31.95c-.493 0-.95.148-1.331.402v-3.618a1.33 1.33 0 0 1 1.33-1.312h31.951ZM41.218 12a2.397 2.397 0 0 1 2.396 2.396v8.925a2.386 2.386 0 0 0-1.333-.404h-31.95c-.493 0-.95.148-1.331.402v-8.922A2.397 2.397 0 0 1 11.396 12h29.822Zm-3.594 2.396a3.328 3.328 0 1 0 0 6.657h.267a3.329 3.329 0 0 0 0-6.657h-.267Z"/>
  <use xlink:href="#b" fill-opacity=".5"/>
  <use xlink:href="#a" fill-opacity=".4"/>
  <path fill="#fff" fill-opacity=".4" d="M42.283 24.005c.735 0 1.331.597 1.331 1.331v3.6a2.386 2.386 0 0 0-1.332-.404h-31.95c-.493 0-.951.148-1.332.403v-3.599c0-.735.596-1.33 1.331-1.33h31.952Z" opacity=".5"/>
</svg>