<svg fill="none" height="24" viewBox="0 0 24 24" width="24" xmlns="http://www.w3.org/2000/svg" ><circle cx="12" cy="12" fill="#f4f4f4" r="12" /><path d="m19.57 5.037-.66.659a9.33 9.33 0 0 1 0 12.59l.66.66a10.27 10.27 0 0 0 0-13.925zM5.711 5.094a9.33 9.33 0 0 1 12.591 0l.659-.66a10.27 10.27 0 0 0-13.924 0zM5.094 18.293a9.33 9.33 0 0 1 0-12.584l-.66-.659a10.27 10.27 0 0 0 0 13.924zM18.293 18.902a9.33 9.33 0 0 1-12.59 0l-.66.659a10.27 10.27 0 0 0 13.925 0z" fill="#5a5564" /><path d="M16.16 9.59c-.131-1.375-1.318-1.836-2.818-1.977V5.72h-1.16v1.858h-.927V5.72h-1.15v1.907H7.751v1.24s.856-.015.843 0a.6.6 0 0 1 .66.51v5.22a.4.4 0 0 1-.141.283.4.4 0 0 1-.3.1c.016.014-.843 0-.843 0l-.22 1.387h2.331v1.937h1.16v-1.909h.927v1.9h1.162V16.38c1.96-.119 3.326-.602 3.497-2.436.139-1.476-.556-2.135-1.665-2.4.675-.333 1.092-.948.997-1.954m-1.625 4.126c0 1.44-2.47 1.276-3.255 1.276v-2.557c.786.002 3.255-.224 3.255 1.28m-.538-3.603c0 1.318-2.06 1.158-2.715 1.158V8.947c.654 0 2.715-.207 2.715 1.166" fill="#f09242" /><path d="M11.998 24A12 12 0 1 1 12.002.001 12 12 0 0 1 11.998 24m0-23.064a11.058 11.058 0 1 0 .017 22.115A11.058 11.058 0 0 0 11.998.936" fill="#282138" /></svg>