<svg fill="none" height="24" viewBox="0 0 24 24" width="24" xmlns="http://www.w3.org/2000/svg" ><rect fill="#2c374b" height="24" rx="12" width="24" /><path d="m14.074 11.23 1.352-2.297 3.644 5.682.002 1.09-.012-7.503a.57.57 0 0 0-.26-.45l-6.562-3.778a.58.58 0 0 0-.56.037l-.023.014-6.368 3.694-.024.011a.563.563 0 0 0-.329.48l.01 6.114 3.394-5.266c.427-.698 1.358-.923 2.223-.911l1.014.027-5.977 9.596.704.406 6.05-9.992 2.673-.01-6.033 10.244 2.814 1.62a.58.58 0 0 0 .405.009l6.653-3.86-1.272.738zm.516 7.436-2.54-3.99 1.55-2.632 3.336 5.262z" fill="#2d374b" /><path d="m12.05 14.677 2.54 3.99 2.346-1.361-3.335-5.262zM19.072 15.705l-.002-1.09-3.644-5.682-1.352 2.297 3.518 5.695 1.272-.738c.125-.101.2-.25.208-.41z" fill="#28a0f0" /><path d="m3.801 16.734 1.797 1.036 5.977-9.596-1.014-.027c-.865-.012-1.796.213-2.223.911l-3.394 5.266L3.8 16.081zM15.025 8.174l-2.674.01-6.049 9.992 2.114 1.218.576-.976z" fill="#fff" /><path d="M20.199 8.16a1.7 1.7 0 0 0-.8-1.37l-6.647-3.827a1.73 1.73 0 0 0-1.525 0c-.055.028-6.463 3.749-6.463 3.749A1.7 1.7 0 0 0 3.8 8.157v7.924l1.143-1.757-.01-6.114a.57.57 0 0 1 .234-.425c.03-.022 6.548-3.798 6.57-3.808a.58.58 0 0 1 .5-.003L18.8 7.752a.57.57 0 0 1 .261.45v7.574a.55.55 0 0 1-.196.411l-1.272.738-.656.38-2.346 1.361-2.379 1.38a.58.58 0 0 1-.405-.007l-2.814-1.621-.576.976 2.53 1.458.401.224c.18.087.439.138.672.138.213 0 .422-.04.619-.116l6.91-4.006c.396-.308.63-.772.65-1.274z" fill="#96bedc" /></svg>