<svg fill="none" height="24" viewBox="0 0 24 24" width="24" xmlns="http://www.w3.org/2000/svg" ><path d="M22 12c0 5.523-4.477 10-10 10S2 17.523 2 12 6.477 2 12 2s10 4.477 10 10" fill="#fff" /><path clip-rule="evenodd" d="M12 24c6.627 0 12-5.373 12-12S18.627 0 12 0 0 5.373 0 12s5.373 12 12 12m-.048-19.984-4.227 2.46 1.554.91 2.673-1.552 2.673 1.551 1.554-.909zm2.673 4.655 1.554.909v1.817l-2.673 1.552v3.103l-1.554.909-1.554-.909v-3.103l-2.673-1.552V9.58L9.28 8.67l2.673 1.552zm0 4.92 1.554-.909v1.819l-1.554.908zm-.015 3.104 2.673-1.552V12.04l1.554-.909v4.921l-4.227 2.46zm2.673-7.758-1.554-.91 1.554-.908 1.554.909v1.818l-1.554.909zM10.398 19.17v-1.818l1.554.909 1.554-.91v1.819l-1.554.909zM9.28 15.409 7.725 14.5v-1.818l1.554.91zm2.673-6.472-1.554-.91 1.554-.908 1.554.909zm-3.776-.91-1.554.91v1.818l-1.554-.91V8.029l1.554-.909zm-3.108 3.104 1.554.909v3.103l2.673 1.552v1.817l-4.227-2.46z" fill="#f0b90b" fill-rule="evenodd" /></svg>