<svg fill="none" height="24" viewBox="0 0 24 24" width="24" xmlns="http://www.w3.org/2000/svg" ><g clip-path="url(#a)"><path d="M12 18.11v4.483A8.352 8.352 0 0 1 12 5.89V1.407a8.352 8.352 0 0 1 0 16.703" fill="#fff" /><path d="M12 0C5.373 0 0 5.373 0 12s5.373 12 12 12 12-5.373 12-12S18.627 0 12 0m0 18.11v4.483A8.352 8.352 0 0 1 12 5.89V1.407a8.352 8.352 0 0 1 0 16.703m4.132-6.149v.078a8.88 8.88 0 0 0-4.093 4.093h-.078a8.88 8.88 0 0 0-4.093-4.093v-.078a8.88 8.88 0 0 0 4.093-4.093h.078a8.88 8.88 0 0 0 4.093 4.093" fill="#ff0420" /></g><defs><clipPath id="a"><rect fill="#fff" height="24" rx="12" width="24" /></clipPath></defs></svg>