<svg fill="none" height="20" width="20" xmlns="http://www.w3.org/2000/svg" ><path d="M0 0h20v20H0z" fill="#D9D9D9" /><g clip-path="url(#a)" stroke="#000" stroke-linecap="round" stroke-linejoin="round" ><path d="M15.565 11.75h-2.648a1.167 1.167 0 0 0-1.167 1.167v2.648M7.083 4.948v.969a1.75 1.75 0 0 0 1.75 1.75A1.167 1.167 0 0 1 10 8.833a1.167 1.167 0 1 0 2.333 0A1.17 1.17 0 0 1 13.5 7.667h1.849m-5.932 8.137V13.5a1.167 1.167 0 0 0-1.167-1.167 1.167 1.167 0 0 1-1.166-1.166v-.584a1.167 1.167 0 0 0-1.167-1.166h-1.72"/><path d="M10 15.833a5.833 5.833 0 1 0 0-11.666 5.833 5.833 0 0 0 0 11.666Z"/></g><defs><clipPath id="a"><path d="M3 3h14v14H3z" fill="#fff" /></clipPath></defs></svg>
