<svg fill="none" height="24" viewBox="0 0 24 24" width="24" xmlns="http://www.w3.org/2000/svg" ><g clip-path="url(#a)"><path d="M12 24c6.627 0 12-5.373 12-12S18.627 0 12 0 0 5.373 0 12s5.373 12 12 12" fill="#ff0420" /><path d="M8.5 15.187q-1.072 0-1.756-.504c-.451-.34-.677-.83-.677-1.459 0-.134.015-.293.043-.485q.116-.646.332-1.56.613-2.477 3.163-2.477c.46 0 .878.077 1.243.236q.547.224.864.686.317.453.317 1.08 0 .187-.043.475a20 20 0 0 1-.327 1.56c-.211.821-.571 1.44-1.09 1.848-.513.403-1.204.6-2.068.6m.13-1.296q.503 0 .855-.297.362-.295.513-.912c.14-.567.245-1.056.317-1.479q.037-.187.039-.389 0-.82-.855-.82-.504 0-.864.297-.353.295-.504.912c-.11.403-.216.893-.326 1.479q-.038.178-.039.379c-.004.557.288.83.864.83M12.447 15.1c-.068 0-.116-.018-.154-.062q-.043-.07-.029-.163l1.243-5.856a.24.24 0 0 1 .101-.163.26.26 0 0 1 .173-.062h2.395q1 .001 1.603.412.613.417.615 1.2-.002.226-.053.47c-.149.692-.451 1.2-.912 1.532q-.676.495-1.858.494h-1.214l-.413 1.973a.26.26 0 0 1-.1.163.26.26 0 0 1-.173.063zm3.187-3.44c.254 0 .47-.068.657-.207a1 1 0 0 0 .38-.595q.028-.152.028-.27-.002-.259-.153-.398c-.101-.096-.279-.144-.523-.144h-1.08l-.341 1.613z" fill="#fff" /></g><defs><clipPath id="a"><path d="M0 0h24v24H0z" fill="#fff" /></clipPath></defs></svg>