<svg width="38" height="38" viewBox="0 0 38 38" fill="none" xmlns="http://www.w3.org/2000/svg">
    <path
        d="M19 38C29.4934 38 38 29.4934 38 19C38 8.50659 29.4934 0 19 0C8.50659 0 0 8.50659 0 19C0 29.4934 8.50659 38 19 38Z"
        fill="#F7931A" />
    <path
        d="M27.5369 16.6488C27.9098 14.1598 26.0133 12.8214 23.4222 11.9284L24.263 8.55594L22.211 8.04531L21.3916 11.3288C20.8525 11.1934 20.2991 11.0675 19.7469 10.9416L20.5722 7.63681L18.5202 7.125L17.6795 10.4963C17.233 10.3942 16.7936 10.2944 16.3685 10.1876L16.3708 10.1769L13.5398 9.47031L12.9936 11.6624C12.9936 11.6624 14.5172 12.0116 14.4851 12.0329C15.3163 12.2408 15.466 12.7906 15.441 13.2276L14.4839 17.0691C14.5409 17.0834 14.6145 17.1047 14.6977 17.1368L14.4803 17.0834L13.1385 22.4651C13.0363 22.7169 12.7787 23.0957 12.1968 22.952C12.2182 22.9817 10.7053 22.5803 10.7053 22.5803L9.6864 24.9292L12.3583 25.5954C12.8547 25.7201 13.3415 25.8507 13.8201 25.973L12.971 29.3835L15.0218 29.8941L15.8626 26.5216C16.4231 26.6724 16.967 26.8126 17.499 26.9456L16.6606 30.3038L18.7126 30.8144L19.5617 27.4111C23.0624 28.0737 25.6939 27.8065 26.8018 24.6406C27.6948 22.0922 26.7579 20.6209 24.9161 19.6626C26.258 19.3539 27.2673 18.4716 27.5369 16.6488ZM22.8463 23.2251C22.2133 25.7747 17.9205 24.396 16.5288 24.0504L17.6569 19.532C19.0487 19.8799 23.5101 20.5675 22.8463 23.2251ZM23.4816 16.6119C22.9033 18.9311 19.3313 17.7519 18.1735 17.4634L19.1947 13.3665C20.3525 13.6551 24.0848 14.193 23.4816 16.6119Z"
        fill="white" />
</svg>
