<svg width="44" height="44" viewBox="0 0 44 44" fill="none" xmlns="http://www.w3.org/2000/svg">
    <path
        d="M22 44C34.1503 44 44 34.1503 44 22C44 9.84974 34.1503 0 22 0C9.84974 0 0 9.84974 0 22C0 34.1503 9.84974 44 22 44Z"
        fill="#988330" />
    <path
        d="M22 43.1606C33.6866 43.1606 43.1605 33.6867 43.1605 22C43.1605 10.3134 33.6866 0.839478 22 0.839478C10.3133 0.839478 0.839447 10.3134 0.839447 22C0.839447 33.6867 10.3133 43.1606 22 43.1606Z"
        fill="#796829" />
    <path
        d="M22.0383 42.7291C33.4866 42.7291 42.7674 33.4484 42.7674 22C42.7674 10.5516 33.4866 1.27087 22.0383 1.27087C10.5899 1.27087 1.30913 10.5516 1.30913 22C1.30913 33.4484 10.5899 42.7291 22.0383 42.7291Z"
        fill="#BA9F34" />
    <mask id="mask0_11227_15392" style="mask-type:luminance" maskUnits="userSpaceOnUse" x="1" y="1" width="42"
        height="42">
        <path
            d="M22.0382 42.7291C33.4866 42.7291 42.7673 33.4484 42.7673 22C42.7673 10.5516 33.4866 1.27087 22.0382 1.27087C10.5898 1.27087 1.30908 10.5516 1.30908 22C1.30908 33.4484 10.5898 42.7291 22.0382 42.7291Z"
            fill="white" />
    </mask>
    <g mask="url(#mask0_11227_15392)">
        <path
            d="M37.3099 29.2511C37.3099 29.2511 38.3024 30.5517 38.4044 31.4039C38.4469 31.7652 38.534 33.2061 38.4299 34.2283C38.4299 34.2283 39.1652 34.9743 38.7061 36.9486C38.7061 36.9486 38.517 39.1694 37.9474 39.9451C37.9474 39.9451 36.8806 41.2989 36.5703 41.2989C36.5703 41.2989 35.6671 42.4847 34.7618 42.4592C34.7618 42.4592 34.3219 42.9756 34.7618 43.2859C34.7618 43.2859 36.2855 44.0361 36.26 44.8352C36.26 44.8352 36.5873 45.2921 36.328 46.971C36.328 46.971 35.8116 47.8572 35.5268 48.4267C35.5268 48.4267 35.6034 48.4778 34.7767 48.7115C34.7767 48.7115 34.4919 49.2279 33.7438 49.0218C33.7438 49.0218 34.0031 49.4872 33.0977 49.5127C33.0977 49.5127 32.4262 49.9781 31.2892 50.0036C31.2892 50.0036 29.4042 49.8655 27.7508 50.4159C27.4405 50.5201 12.7937 51.0365 10.3518 47.8848C10.3518 47.8848 7.60606 47.0071 7.13851 44.8883C7.13851 44.8883 6.36069 43.2349 6.77298 42.4592C6.77298 42.4592 8.53052 38.7401 8.40088 38.3767C8.40088 38.3767 8.01197 35.6905 8.68566 34.0881C8.68566 34.0881 11.1849 29.9546 13.5523 30.7813C13.5523 30.7813 36.8955 27.7146 37.3078 29.249L37.3099 29.2511Z"
            fill="#EDDFB3" />
        <path
            d="M16.0239 4.28436C16.0239 4.28436 16.1621 5.24282 15.9113 6.15453C15.9113 6.15453 15.4735 7.10237 15.6669 8.56663C15.6669 8.56663 16.4341 8.87691 17.3628 8.36048C17.3628 8.36048 16.6509 6.87922 16.7083 5.77625C16.7083 5.77625 16.5637 4.28436 16.0239 4.28436Z"
            fill="#EDC182" />
        <path
            d="M9.66749 15.8284C9.66749 15.8284 10.5473 15.7158 10.7025 15.3035C10.7025 15.3035 11.425 15.1675 11.5525 15.5033C11.5525 15.5033 10.949 16.6105 11.1296 17.7985C11.1296 17.7985 11.6801 19.0821 11.9393 19.1586L13.8881 17.4351C13.8881 17.4351 12.5344 19.1076 12.4302 19.4689C12.4302 19.4689 14.9613 20.6569 16.4851 20.1659C16.4851 20.1659 17.1822 21.3093 19.1969 22.1062C19.1969 22.1062 20.7206 22.2061 21.1095 21.2498C21.1095 21.2498 23.8744 21.6111 24.9838 21.3263C24.9838 21.3263 25.4492 21.1967 25.4492 20.7589C25.4492 20.7589 25.7063 19.369 26.2504 19.0332C26.2504 19.0332 27.1281 18.2618 27.8273 18.6677C27.8273 18.6677 29.5976 19.4838 30.709 19.0396C30.709 19.0396 31.8056 18.0344 31.9098 18.4934C31.9098 18.4934 31.7036 19.0566 31.9098 19.3669C31.9098 19.3669 32.66 19.522 32.7365 19.9088C32.7365 19.9088 32.4262 20.5294 32.7365 20.6314C32.7365 20.6314 30.8132 22.1764 30.709 22.7459C30.709 22.7459 31.999 24.0317 31.1723 24.6246C31.1723 24.6246 30.9811 24.7904 30.9279 25.022C30.9279 25.022 30.726 25.413 31.4698 25.8572C31.4698 25.8572 31.608 25.8232 31.574 26.0464C31.574 26.0464 30.6176 27.1663 30.3074 28.1737C30.3074 28.1737 29.8675 29.0514 29.8675 29.5678C29.8675 29.5678 28.6093 31.3848 29.0238 32.2625C29.0238 32.2625 28.8962 33.7523 28.8707 33.9839C28.8707 33.9839 29.9206 34.9148 31.7461 33.9839C31.7461 33.9839 33.0467 32.7343 33.357 32.7088C33.357 32.7088 34.8893 32.1839 35.1209 31.5378C35.1209 31.5378 36.2069 31.0469 36.4641 30.607C36.4641 30.607 38.3236 30.5475 38.4022 31.3997C38.4022 31.3997 38.5489 31.3232 38.3406 30.1607C38.3406 30.1607 38.1026 28.9897 37.7987 28.2481C37.7987 28.2481 37.4884 26.2844 37.2312 26.0527C37.2312 26.0527 37.1271 24.3228 36.5342 23.9594C36.5342 23.9594 36.0688 23.494 35.9668 23.1837C35.9668 23.1837 35.3993 21.6344 34.9339 21.0904C34.9339 21.0904 34.5981 19.9024 34.7788 19.6686C34.7788 19.6686 34.6236 17.8219 34.392 17.4287C34.392 17.4287 33.8501 16.415 33.9011 16.0006C33.9011 16.0006 33.6822 13.5566 33.6503 13.2293C33.6503 13.2293 33.4548 11.9202 33.7736 11.6099C33.7736 11.6099 34.3622 10.05 34.0413 9.07881C34.0413 9.07881 34.0838 6.36069 33.3103 5.56374C33.3103 5.56374 32.8704 5.23008 32.0968 5.43623C32.0968 5.43623 30.9853 5.56374 27.8868 9.15532C27.8868 9.15532 27.3045 9.99689 26.5288 9.89276C26.5288 9.89276 25.7573 9.41459 24.6586 9.38696C24.5523 9.38484 23.715 9.32958 22.561 9.18082C22.3591 9.15532 20.931 8.94917 20.4571 8.84504C20.4571 8.84504 19.4923 8.6899 19.3903 8.53476C19.3903 8.53476 18.8356 7.81219 18.2788 6.80485C18.2788 6.80485 17.7496 5.87189 17.6986 5.61687C17.6986 5.61687 16.9803 4.22274 16.075 4.28225C16.075 4.28225 16.5574 4.78167 16.6339 5.41923C16.6339 5.41923 16.6679 5.704 16.5659 6.20342C16.4979 6.53495 16.5404 6.93024 16.5042 7.3744C16.5042 7.3744 16.4299 7.60605 16.3257 8.1501C16.3257 8.1501 16.2216 8.34987 15.6839 8.89392C15.6839 8.89392 14.4832 10.1605 12.9275 10.881C12.5875 11.0382 12.0647 11.2316 11.8352 11.527C11.4272 12.0541 10.7386 12.6789 10.4581 13.3844C10.4581 13.3844 10.3221 14.1431 10.0394 14.5172C10.0394 14.5172 9.2382 15.5373 9.67812 15.8199L9.66749 15.8284Z"
            fill="#E5C66B" />
        <path
            d="M15.584 15.5054C15.584 15.5054 16.2832 15.006 16.5914 14.4556C16.5914 14.4556 17.4861 13.7033 17.3501 13.3909C17.3501 13.3909 17.4181 11.8395 16.7996 11.8055C16.7996 11.8055 15.6967 11.204 15.1696 11.7906C15.1696 11.7906 14.6596 12.7575 14.2218 13.0487C14.2218 13.0487 13.716 13.4674 13.1401 13.8754C13.1401 13.8754 13.1124 14.1304 13.7032 14.1134C13.7032 14.1134 14.226 13.8754 14.853 14.2005C15.3311 14.4471 15.3715 14.8254 15.584 15.5075V15.5054Z"
            fill="#EDDFB3" />
        <path
            d="M19.2776 13.8754C19.2776 13.8754 19.1756 13.9816 19.3137 14.9932C19.3137 14.9932 20.4167 16.075 20.0894 17.0908C20.0894 17.0908 22.8628 13.7266 24.9285 17.3118C24.9285 17.3118 25.2388 16.6679 23.4812 15.0251C23.4812 15.0251 23.5153 14.4556 22.9691 13.8754C22.9691 13.8754 22.4059 12.9063 21.5516 12.7682C21.5516 12.7682 21.1032 12.0392 20.2765 12.3006C20.2765 12.3006 19.3456 12.4005 19.4838 13.2336C19.4838 13.2336 19.1629 13.461 19.2755 13.8733L19.2776 13.8754Z"
            fill="#EDDFB3" />
        <path
            d="M16.3321 8.43702C16.3321 8.43702 17.095 8.22663 18.0046 8.27338C18.5997 8.30526 19.1565 8.35201 19.8068 8.65804C19.8068 8.65804 20.5442 8.89606 21.2944 8.89606C22.0446 8.89606 22.5079 9.08095 23.1518 9.21059C23.1518 9.21059 25.4428 9.04695 26.8709 9.96078C26.8709 9.96078 28.6518 10.9979 29.0238 12.5493C29.2512 13.4971 30.8089 13.1613 31.642 13.8754C32.3051 14.4449 33.0765 14.7446 33.5929 15.3205C33.5929 15.3205 34.3622 16.1748 34.7767 19.3988C34.7767 19.3988 34.4706 20.523 32.9192 19.0396C32.9192 19.0396 33.102 17.4542 32.2859 17.0929C32.2859 17.0929 30.2309 15.6967 29.6103 15.0251C29.6103 15.0251 26.8603 14.2515 26.5819 13.1656C26.5819 13.1656 24.8052 12.3686 23.9785 12.3006C23.9785 12.3006 22.17 11.459 21.0862 11.9755C21.0862 11.9755 19.4328 12.1837 19.692 13.1635C19.692 13.1635 20.6399 13.291 20.0873 13.8733C20.0873 13.8733 18.6018 15.3482 17.7772 15.3141C17.7772 15.3141 16.8166 14.8147 17.1673 14.1177C17.1673 14.1177 17.6476 13.0593 18.1768 12.9042C18.1768 12.9042 18.5444 10.7599 18.368 10.7216C18.368 10.7216 17.3883 11.7332 17.3798 10.1159C17.3798 10.1159 15.6988 9.39336 14.2239 10.2201C14.2239 10.2201 14.7297 9.28922 16.3321 8.43702Z"
            fill="#D5A952" />
        <path
            d="M15.1909 9.15317C15.1909 9.15317 15.5394 8.65587 16.16 8.49861C16.16 8.49861 16.9123 8.17133 17.3713 8.49861C17.3713 8.49861 17.5031 8.82589 16.7465 8.94702C16.7465 8.94702 16.4532 8.96402 16.3852 9.2403C16.3852 9.2403 16.2258 9.56758 15.4544 9.39544C15.4544 9.39544 15.3991 9.37206 15.21 9.42094C15.0549 9.46132 14.9741 9.24242 15.1207 9.17654C15.142 9.16592 15.1654 9.15954 15.1909 9.15317Z"
            fill="#C79747" />
        <path
            d="M19.6878 8.58365C19.675 8.63678 19.6198 8.66866 19.5666 8.65166C19.4221 8.6049 19.0035 8.5369 17.8219 8.58577C17.8219 8.58577 17.2013 8.65591 17.1163 8.14799C17.1163 8.14799 16.806 7.7952 16.789 6.93237C16.772 6.07167 16.9101 5.76139 16.772 5.24497C16.772 5.24497 16.6849 4.62867 16.3151 4.31414C16.3151 4.31414 16.7805 4.227 17.1333 4.67542C17.1333 4.67542 17.7347 5.48512 17.8984 5.7954C17.8984 5.7954 18.0981 6.05467 18.4084 6.94938C18.4084 6.94938 18.4955 7.34466 19.2011 7.74207C19.2011 7.74207 19.7685 8.22449 19.6899 8.58577L19.6878 8.58365Z"
            fill="#BC893B" />
        <path
            d="M26.0974 9.69297C26.0974 9.69297 26.618 9.82898 27.0792 9.78648C27.0792 9.78648 29.2235 7.17886 30.5156 6.4563C30.5156 6.4563 28.4478 9.23818 28.2799 11.1253C28.2799 11.1253 28.7581 11.7969 28.603 12.1858C28.603 12.1858 28.5073 12.5981 28.1992 12.5471C28.1992 12.5471 26.9942 11.7183 26.7179 11.0658C26.7179 11.0658 26.3566 10.7216 26.1229 10.118C26.1229 10.118 25.8997 9.74185 26.0974 9.69297Z"
            fill="#C79747" />
        <path
            d="M32.2987 5.41499C32.2349 5.42349 31.9268 5.48087 31.812 5.54463C31.4316 5.75289 31.557 6.24806 31.8481 6.56897C31.9438 6.6731 32.1032 6.909 32.22 7.04289C32.3986 7.24691 32.3263 7.56568 32.0755 7.66982C31.3742 7.9631 30.1522 8.43276 30.1289 9.08307C30.1289 9.08307 29.6804 9.32322 29.7506 10.3922C29.7506 10.3922 30.3818 10.5133 30.3839 10.8576C30.3839 10.8576 31.0937 11.5292 30.0587 12.0796C30.0587 12.0796 29.0939 12.596 29.164 13.1464C29.164 13.1464 30.1289 14.4216 31.1277 13.4567C31.1277 13.4567 32.4028 12.2857 32.7471 11.459C32.7471 11.459 32.9872 10.0479 32.7471 9.42735C32.7471 9.42735 33.4017 9.35935 33.4357 9.77164C33.4357 9.77164 33.2295 10.3922 33.4357 11.1488C33.4357 11.1488 33.6078 11.8033 33.2295 12.3197C33.2295 12.3197 31.8524 12.9403 31.8864 13.5247C31.8864 13.5247 31.8524 14.1772 32.6451 14.2983C32.6451 14.2983 33.068 14.2473 33.476 13.4907C33.476 13.4907 33.8841 13.0423 33.9882 12.0796C33.9882 12.0796 34.3559 11.187 34.3219 10.5665C34.3219 10.5665 34.3346 9.6675 34.1965 8.97894C34.1965 8.97894 34.3686 7.25753 33.3358 6.08655C33.3358 6.08655 32.9915 5.32786 32.3029 5.41499H32.2987Z"
            fill="#AE894C" />
        <path
            d="M26.2015 10.0479C26.2015 10.0479 26.0974 10.4963 27.0962 11.459C27.0962 11.459 27.5085 11.459 27.9229 12.0796C27.9229 12.0796 28.3713 12.9063 29.4722 13.665C29.4722 13.665 30.1947 14.4874 31.7461 15.5054C31.7461 15.5054 32.3327 16.9335 33.5377 17.4351C33.5377 17.4351 34.3984 17.8878 34.0902 16.3024C34.0902 16.3024 33.8692 15.8284 33.8139 15.3545C33.8139 15.3545 33.8139 14.0412 32.8831 14.3004C32.8831 14.3004 31.0576 14.1474 30.6092 13.3207C30.6092 13.3207 28.8516 12.2177 28.9898 11.6673C28.9898 11.6673 28.7836 11.1509 28.1971 11.0808C28.1971 11.0808 29.402 9.5315 29.6082 8.53265C29.6082 8.53265 29.8483 7.70595 30.2627 7.39568C30.2627 7.39568 30.0566 7.0854 29.2979 8.22238C29.2979 8.22238 28.2991 10.3922 27.2662 10.7025C27.2662 10.7025 26.6117 10.5643 26.5777 9.80777C26.5777 9.80777 26.1122 9.67388 26.1994 10.0479H26.2015Z"
            fill="#BC893B" />
        <path
            d="M32.2859 5.38098C32.2859 5.38098 33.2784 4.83055 33.9415 6.69859C33.9415 6.69859 34.2007 7.31915 34.2262 8.45613C34.2262 8.45613 34.5195 9.78863 34.2496 10.9447C34.2496 10.9447 33.7247 11.6418 33.5483 11.4357C33.5483 11.4357 33.6057 9.97989 33.7863 9.61861C33.7863 9.61861 33.442 9.02356 33.5228 8.94705C33.5228 8.94705 33.7077 8.26274 33.6312 7.95883C33.6312 7.95883 33.3464 7.68043 33.3209 7.57842C33.3209 7.57842 33.1403 6.67522 32.881 6.64759C32.881 6.64759 31.999 6.15667 32.0777 5.87189C32.0777 5.87189 32.05 5.33635 32.2838 5.38098H32.2859Z"
            fill="#966021" />
        <path
            d="M33.6163 12.9063C33.6163 12.9063 32.5367 13.291 32.3922 13.7309C32.3922 13.7309 32.4347 14.005 32.983 13.7989C32.983 13.7989 33.8246 13.2442 33.6184 12.9084L33.6163 12.9063Z"
            fill="#966021" />
        <path
            d="M32.5176 15.72C32.83 15.1972 32.2753 14.7743 32.3901 14.5639C32.5495 14.2706 32.915 14.4258 33.1063 14.4619C34.0201 14.6298 33.5695 15.7136 33.6461 15.8284C33.6461 15.8284 33.899 16.1599 33.899 16.3555C33.899 16.3555 33.7183 16.8612 33.3039 17.0929C33.3039 17.0929 33.2678 16.602 33.1063 16.4723C33.1063 16.4723 32.66 16.3214 32.6323 16.0218C32.6323 16.0218 32.4368 15.856 32.5176 15.72Z"
            fill="#966021" />
        <path
            d="M30.1012 9.98838C30.1012 9.98838 29.4637 10.6174 30.1097 10.7194C30.1097 10.7194 30.3733 11.0701 30.3733 11.2911C30.3733 11.2911 29.5338 11.9627 29.3277 12.5492C29.2363 12.8085 30.2861 12.6385 30.0715 12.9063C30.0715 12.9063 29.9227 13.4482 30.6453 13.1379C30.6453 13.1379 31.9884 12.1752 32.1945 11.6099C32.1945 11.6099 32.4581 9.74823 32.2498 9.41245C32.2498 9.41245 32.0692 9.30831 31.7844 9.56759C31.7844 9.56759 31.5166 9.64622 31.0661 9.57184C30.8302 9.53358 30.5879 9.58034 30.3903 9.7121C30.284 9.78223 30.1799 9.87362 30.1012 9.98625V9.98838Z"
            fill="#38260D" />
        <path
            d="M29.5423 12.9063C29.5423 12.9063 29.8356 12.9063 30.9726 11.4952C30.9726 11.4952 30.5943 11.6503 30.4731 11.5993C30.4731 11.5993 31.0406 11.272 31.1277 11.1339C31.1277 11.1339 30.6793 11.221 30.5411 11.221C30.5411 11.221 30.9896 10.9107 31.1277 10.6175C31.1277 10.6175 30.4561 10.6685 30.216 10.8236C30.216 10.8236 30.5773 10.5473 30.7324 10.5133C30.7324 10.5133 30.3881 10.3582 29.8547 10.5133C29.8547 10.5133 29.4764 10.2541 28.8389 10.6345C28.8389 10.6345 27.908 10.8937 28.1503 11.6588C28.1503 11.6588 28.1099 12.9084 29.5444 12.9063H29.5423Z"
            fill="#E5C66B" />
        <path
            d="M17.9855 15.5628C18.0578 15.5968 19.199 15.2589 19.7154 14.1729C19.7154 14.1729 19.8705 13.9667 19.3541 14.1729C19.3541 14.1729 19.2989 13.6288 18.8611 13.8754C18.8611 13.8754 18.4233 14.1474 18.6316 13.5268C18.6316 13.5268 19.3286 12.6534 19.4328 12.3027C19.4328 12.3027 19.4774 11.8224 19.7388 11.7204C19.7388 11.7204 20.4911 11.6312 21.0607 10.9001C21.0607 10.9001 21.2604 10.4984 20.5464 11.0999C20.5464 11.0999 19.845 10.8406 19.5348 11.1764C19.5348 11.1764 18.8887 11.6928 18.8632 12.0286C18.8632 12.0286 18.7081 12.5025 18.5529 12.5492C18.5529 12.5492 18.011 12.1136 17.9855 12.5492C17.9855 12.5492 18.1406 13.1464 17.9855 13.6586C17.9855 13.6586 17.5732 14.3259 17.5987 14.7913C17.5987 14.7913 17.8835 15.023 17.8835 15.1781C17.8835 15.1781 17.807 15.4778 17.9876 15.5606L17.9855 15.5628Z"
            fill="#C79747" />
        <path
            d="M32.2859 24.988C32.2859 24.988 31.9948 23.4728 31.8609 23.4473L31.9863 20.9799C31.9863 20.9799 29.8845 19.658 23.8234 22C23.8234 22 22.7204 20.9013 20.7589 20.1596C20.7589 20.1596 20.7504 20.1532 20.7376 20.1447C20.5272 19.9194 20.2892 19.7197 20.0873 19.692C20.0873 19.692 20.1192 19.8068 20.1341 19.9662C20.1171 19.9726 20.1022 19.9789 20.0873 19.9896C20.0873 19.9896 20.1086 20.1447 20.1277 20.3424C20.1001 20.5209 20.0257 20.693 19.8642 20.7929C19.8642 20.7929 19.8365 20.8035 19.794 20.8205C19.454 20.4592 18.8802 19.8854 18.3872 19.5773C18.3319 19.4902 18.2639 19.4285 18.1789 19.4158C18.1789 19.4158 18.045 17.6561 18.1789 17.433C18.1789 17.433 18.0386 15.956 17.7964 15.8263C17.7964 15.8263 17.3905 15.9071 16.7465 16.2492C16.5914 16.33 16.5149 16.075 15.9708 16.6679C15.9708 16.6679 15.329 17.4755 14.6936 17.96C14.3132 18.2512 13.9349 18.2405 13.699 18.3829L13.3058 18.5614C13.3526 18.4701 13.8584 17.5626 13.886 17.4351C13.886 17.4351 13.0019 17.9643 12.0902 19.0354C12.0902 19.0354 11.5589 18.5912 11.6609 18.4531C11.6609 18.4531 11.1573 17.8601 11.1806 17.6646C11.1806 17.6646 11.8118 16.1557 11.7289 15.3078C11.6801 14.7977 11.4144 15.0761 10.9299 15.0421C10.9299 15.0421 10.4496 15.1866 9.92252 15.6202C9.87364 15.5054 9.69725 15.397 9.58037 15.3056C9.58037 15.3056 9.48686 15.6563 9.35297 16.0155C9.30409 16.0686 9.25309 16.126 9.20208 16.1855C9.20208 16.1855 9.17658 16.3151 9.1107 16.4894C9.07882 16.5234 8.83867 16.9229 8.61128 17.3437C8.46677 17.4393 8.07998 17.8176 8.25 19.0375C8.25 19.0375 8.20324 19.4136 8.05235 19.8812C7.84621 20.1957 7.52956 20.7121 7.40629 21.0947C7.38929 21.1138 7.37229 21.1308 7.35529 21.1499C7.35529 21.1499 7.2044 21.5282 7.32554 22.3549C7.23415 22.5866 7.02163 23.188 7.20865 23.3729C7.20865 23.3729 7.24053 23.5493 7.36592 23.9106C7.34679 24.1209 7.31704 24.359 7.27878 24.6289C7.27878 24.6289 7.28728 25.2112 8.18199 25.9507C8.18199 25.9507 8.36476 26.2929 8.63466 26.7264C8.65378 26.8497 8.68354 26.9687 8.73242 27.0686C8.73242 27.0686 9.16383 27.8443 9.19783 28.2566C9.19783 28.2566 9.17658 28.8091 9.27646 29.3468C9.26796 29.4616 9.25734 29.5869 9.24884 29.7208C9.24884 29.7208 9.74613 30.6219 10.7684 31.3169C12.3601 32.9788 15.0039 35.3653 16.9463 35.2315C16.9463 35.2315 24.4886 34.1051 26.2461 32.0862C26.2461 32.0862 26.2929 31.9969 26.363 31.863C26.5352 31.7483 26.6903 31.6208 26.8157 31.4784C26.8157 31.4784 29.5678 31.7546 30.0524 31.3062V30.2734C30.0524 30.2734 31.0044 29.8611 31.166 29.0344L30.6049 28.7942C30.6049 28.7942 31.7504 27.4299 31.5697 25.5916C31.5697 25.5916 32.2009 25.3323 32.2817 24.9965L32.2859 24.988Z"
            fill="#EDDFB3" />
        <path d="M22.9648 31.8715L22.967 31.8694C22.967 31.8694 22.967 31.8694 22.9648 31.8715Z" fill="#E5C66B" />
        <path
            d="M27.6488 29.6974C27.6488 29.6974 26.6159 30.7303 25.2728 31.6611C25.2728 31.6611 24.8605 31.3104 24.2654 32.0798C24.2654 32.0798 23.7235 32.7449 23.4132 32.6429C23.4132 32.6429 22.6333 32.1796 22.9669 31.8715C22.9181 31.9204 22.1594 32.6876 21.7598 32.4368C21.7598 32.4368 20.693 33.3676 20.0894 33.3676C20.0894 33.3676 19.1777 32.9553 18.7123 32.9553C18.7123 32.9553 17.5243 33.8862 17.2141 33.731C17.2141 33.731 16.211 33.0595 15.6287 33.4207C15.6287 33.4207 14.5491 33.782 14.2282 33.3697C14.2282 33.3697 13.2166 32.543 12.4515 32.3879C12.4515 32.3879 12.3282 32.3454 12.1561 32.2413L11.8288 31.8545C11.8288 31.8545 11.5717 31.5761 11.2805 31.2956C11.2125 31.1595 11.1551 31.0065 11.1126 30.8386C11.1126 30.8386 10.6855 29.3531 9.59523 29.6804C9.44859 29.4636 9.32533 29.2299 9.25945 28.9961C9.25945 28.9961 9.25945 29.6655 9.19782 30.3838C9.07243 30.7239 8.9683 31.1468 9.01718 31.5527C8.97255 31.6866 8.26699 33.7969 8.43488 35.2314C8.43488 35.2314 9.56123 33.1296 10.8406 33.3017C10.8406 33.3017 11.0064 33.5376 11.5334 33.6035C12.12 33.9265 12.817 34.6512 13.0232 35.0656C13.41 35.8413 13.4525 36.5235 13.7075 37.5054C13.7075 37.5054 14.1346 37.7115 14.3833 36.8848C14.3833 36.8848 15.2823 38.1769 15.125 40.9673C15.125 40.9673 15.8242 42.2063 15.7307 39.9345C15.7307 39.9345 16.2067 38.0218 16.9824 39.1078C16.9824 39.1078 17.2417 40.7102 18.3765 39.9345C18.3765 39.9345 18.8186 38.4893 18.8186 38.0749C18.8186 38.0749 20.1107 36.7828 20.8843 36.9379C20.8843 36.9379 21.9362 37.1441 22.1062 36.7828C22.1062 36.7828 22.2784 36.4725 21.762 36.1622C21.762 36.1622 22.2189 35.8307 22.9712 35.0678C22.9712 35.0678 24.9136 34.3473 25.4811 33.4994C25.4811 33.4994 27.0303 32.3411 27.3937 31.2042C27.3937 31.2042 27.9612 30.0672 27.653 29.7059L27.6488 29.6974Z"
            fill="#E5C66B" />
        <path
            d="M12.0945 32.0798C12.0945 32.0798 14.3132 33.8139 14.6936 33.8139C14.6936 33.8139 15.278 33.3017 15.6244 33.4548L16.143 33.9861C16.143 33.9861 16.7635 34.3303 17.4521 33.9861C17.4521 33.9861 18.1406 33.5036 18.3128 33.6418C18.3128 33.6418 18.8292 34.1901 18.9673 34.1391C18.9673 34.1391 19.6219 33.6418 19.794 33.6418C19.794 33.6418 20.5166 33.8139 20.965 33.7459C20.965 33.7459 22.0042 33.476 22.5525 33.4548C22.5525 33.4548 23.8765 33.51 24.2633 33.1105C24.2633 33.1105 23.341 34.0222 22.6886 34.1412C22.6886 34.1412 21.0585 34.4324 20.5485 34.6385C20.5485 34.6385 19.7494 35.0593 18.9015 35.7627C18.6252 35.9922 18.3574 37.5649 17.9005 37.2907C17.6157 37.1207 17.3989 37.3077 17.2289 37.5606C17.095 37.7604 16.857 38.2046 16.7869 37.975C16.5595 37.2461 16.0771 35.6777 15.5883 35.5885C15.5883 35.5885 14.5129 35.3271 14.2282 34.6385C14.2282 34.6385 13.0147 34.0243 12.8595 33.4526C12.8595 33.4526 12.1837 32.6174 12.0987 32.0776L12.0945 32.0798Z"
            fill="#BC893B" />
        <path
            d="M11.1084 14.9953C11.1084 14.9953 10.7535 14.9635 10.1605 15.5628C10.1605 15.5628 9.87577 16.466 9.64412 16.7274C9.64412 16.7274 9.23183 17.5838 9.1022 17.7368C9.1022 17.7368 8.56027 18.2533 8.48164 18.8483C8.48164 18.8483 8.352 20.2658 8.12036 20.6165C8.12036 20.6165 7.4488 21.3263 7.68044 22.7608C7.68044 22.7608 7.60394 23.2921 7.86108 23.4196C7.86108 23.4196 8.94706 22.6758 8.91943 21.949C8.91943 21.949 8.53264 21.3518 8.66016 20.9778C8.66016 20.9778 8.8663 20.3317 9.15108 19.9895C9.15108 19.9895 9.38272 19.1777 9.56336 19.2053C9.56336 19.2053 10.1924 19.182 10.7662 19.0375C10.9065 19.0013 10.8109 18.3829 10.8342 17.8388C10.8342 17.8388 10.7917 17.3479 11.1084 16.8825C11.1084 16.8825 11.4208 16.6232 11.4484 16.1323C11.4484 16.1323 11.7714 15.0888 11.1084 14.9911V14.9953Z"
            fill="#EFEBD3" />
        <path
            d="M11.8989 23.2624C11.8989 23.2624 12.8085 23.2071 13.1103 23.4196C13.1103 23.4196 13.9051 23.6513 14.107 23.9106C14.107 23.9106 15.006 25.3323 15.8157 25.124C15.8157 25.124 16.3512 25.4938 16.8655 25.3557C16.8655 25.3557 17.6858 25.1155 17.9132 25.1155C18.1406 25.1155 18.4998 24.8881 18.5168 24.3207C18.5168 24.3207 18.3574 23.8681 18.4105 23.562C18.4105 23.562 18.6422 23.0159 18.5168 22.8777C18.5168 22.8777 18.6231 21.8959 18.3574 21.8279C18.3574 21.8279 18.4105 20.778 18.1258 20.7419C18.1258 20.7419 17.7709 20.7291 17.6285 20.6144C17.6285 20.6144 17.3097 20.1086 17.078 20.1575C17.078 20.1575 16.7933 19.6729 16.5807 19.7601C16.5807 19.7601 16.5637 20.0215 16.4214 20.1575C16.4214 20.1575 15.9729 19.9662 15.8157 20.0703C15.8157 20.0703 15.3736 19.6835 14.9295 19.7494C14.9295 19.7494 14.1729 19.5879 13.8307 19.6729C13.8307 19.6729 12.9658 19.6028 12.6428 19.3945C12.6428 19.3945 11.5504 19.1629 11.1998 19.1629C11.1998 19.1629 10.9426 19.0885 10.8491 19.522C10.8491 19.522 10.66 19.9407 10.4729 20.0682C10.4729 20.0682 10.0458 20.421 9.83326 20.7823C9.83326 20.7823 9.35509 21.0415 9.58036 21.8151C9.58036 21.8151 10.0713 22.6142 9.93952 22.7566C9.93952 22.7566 9.62074 23.0541 9.99265 23.4154C9.99265 23.4154 10.9787 23.8234 11.8989 23.2581"
            fill="#EFEBD3" />
        <path
            d="M9.73762 33.986C9.73762 33.986 10.2115 34.5365 10.3539 35.2612C10.3539 35.2612 10.237 35.7691 10.3539 36.0539C10.3539 36.0539 10.6515 36.5448 10.5728 37.1653C10.5728 37.1653 10.5473 37.8879 10.3539 37.8624C10.1605 37.8369 9.69512 37.7073 9.41034 37.3205C9.41034 37.3205 9.10006 36.6489 9.15107 36.209C9.15107 36.209 8.93217 35.3823 9.14469 35.2272C9.14469 35.2272 9.33171 34.5301 9.20207 34.4515C9.20207 34.4515 9.02143 33.8054 9.27858 33.5483C9.27858 33.5483 9.46772 33.2635 9.7355 33.9882L9.73762 33.986Z"
            fill="#EFEBD3" />
        <path
            d="M31.7908 23.3665C31.4252 23.6385 31.1107 23.426 31.1107 23.426C30.5858 23.4154 30.2819 23.9977 30.2819 23.9977C29.9461 24.0529 29.7399 24.9285 29.7399 24.9285C28.9983 24.4928 28.6986 25.6829 28.6986 25.6829C28.6072 25.6468 28.6986 26.9602 28.6986 26.9602C28.6306 27.5807 27.9165 27.5765 27.9165 27.5765C27.4766 27.4745 27.1238 28.5668 27.1238 28.5668C27.0303 28.9069 26.9368 28.909 26.7987 29.0429C26.7647 29.2256 26.7052 29.7463 26.6032 30.1012C26.5734 30.2032 26.5777 30.3116 26.6074 30.4136C26.6435 30.5411 26.6563 30.7175 26.4905 30.7961C26.4905 30.7961 26.1186 30.9173 26.0697 31.4507C26.0697 31.4507 26.1718 32.1265 26.0357 32.1945C26.0357 32.1945 25.3259 32.4283 25.2218 33.0914C25.2218 33.0914 24.5906 34.1029 25.4534 34.6938C25.4534 34.6938 26.176 34.9998 26.4544 34.6938C26.4544 34.6938 27.1323 35.3993 27.4277 34.6938C27.4277 34.6938 27.7933 33.6567 28.0015 33.5568C28.0015 33.5568 28.2969 33.4909 28.4011 33.9563C28.4011 33.9563 28.3139 34.4685 28.4882 34.6959C28.4882 34.6959 29.1491 34.7214 29.3043 34.0243C29.3043 34.0243 29.3383 33.1934 29.4424 33.0595C29.4424 33.0595 29.4764 32.1626 29.7378 32.0628C29.7378 32.0628 30.2075 31.9629 30.2755 31.4975C30.2755 31.4975 30.352 30.4689 30.2479 30.3031C30.2479 30.3031 29.7463 29.5635 30.3541 29.7697C30.3541 29.7697 30.7515 29.9503 30.9598 29.5508C30.9598 29.5508 31.4125 28.8558 31.3678 28.4393C31.3678 28.4393 31.4359 27.8358 31.4359 27.5C31.4359 27.5 31.2977 27.2407 31.3147 26.7073C31.3147 26.7073 31.438 25.8699 31.1596 25.5703C31.1596 25.5703 30.9534 24.9752 31.5485 24.6862C31.5485 24.6862 31.9438 24.9582 32.2201 24.0975C32.2201 24.0975 32.4687 23.5365 32.3093 23.3027C32.3093 23.3027 32.2966 23.188 32.2881 23.0222C32.1584 22.9988 32.0989 22.9839 32.0989 22.9839C31.8949 22.9053 31.7844 23.3665 31.7844 23.3665H31.7908Z"
            fill="#EFE4C5" />
        <path
            d="M32.3008 20.5017C32.3008 20.5017 32.6323 20.3593 32.762 20.1596C32.762 20.1596 33.2168 19.9853 33.1062 19.7005C33.1062 19.7005 32.5813 19.3902 32.0649 19.3647C32.0649 19.3647 32.1945 18.6422 32.1159 18.6677C32.1159 18.6677 32.0394 17.8155 31.5995 17.9961C31.5995 17.9961 30.8238 18.5975 30.488 18.6188C30.488 18.6188 29.6868 18.1768 29.1449 18.3829C29.1449 18.3829 28.603 18.589 28.2799 18.5125C28.2799 18.5125 27.5956 17.8686 27.1812 17.9706C27.1812 17.9706 26.1994 17.8835 26.2504 18.2363C26.2504 18.2363 25.9656 18.2788 26.0442 18.8228C26.0442 18.8228 26.0697 19.2627 25.6829 19.3647C25.6829 19.3647 25.2962 19.4009 25.4513 19.9895C25.4513 19.9895 25.2197 20.1893 25.3217 20.6675C25.3217 20.6675 25.1006 21.4049 24.6565 21.3773C24.6565 21.3773 24.2888 20.6802 23.4111 20.9756C23.4111 20.9756 22.9202 21.0139 22.6609 20.9756C22.6609 20.9756 22.2486 20.7567 21.9107 20.9756C21.9107 20.9756 21.9405 20.8566 21.2689 20.8184C21.2689 20.8184 20.0809 20.8354 20.4932 21.4666C20.4932 21.4666 20.8673 22.4866 20.5995 22.7587C20.5995 22.7587 20.1319 23.545 20.1681 23.7405C20.1681 23.7405 19.5836 24.174 19.8939 24.6225C19.8939 24.6225 20.3338 25.0454 20.7716 25.1495C20.7716 25.1495 20.5676 25.3557 21.2902 25.7169C21.2902 25.7169 21.9086 26.3502 22.1934 25.9422C22.1934 25.9422 22.8054 25.5618 22.9648 25.5618C22.9648 25.5618 23.6151 25.1091 24.1741 25.7424C24.1741 25.7424 24.4758 25.9677 25.4747 26.0336C25.4747 26.0336 26.4778 26.0952 26.5798 25.6128C26.5798 25.6128 26.7349 24.9561 26.8709 24.9837C26.8709 24.9837 27.2152 24.1783 28.3182 24.5162C28.3182 24.5162 28.8346 23.9424 29.334 23.8999C29.334 23.8999 29.9015 23.2836 30.6601 23.6916C30.6601 23.6916 31.1851 23.63 31.727 23.4175C31.727 23.4175 31.6547 23.0094 31.9586 23.069C31.9586 23.069 32.1265 23.1497 32.2285 23.1561C32.2477 23.1561 32.2647 23.1412 32.2647 23.1221C32.2562 22.8416 32.2562 22.4356 32.5282 22.272C32.5282 22.272 33.3294 21.6854 33.3549 21.5048C33.3549 21.5048 33.4144 20.574 32.3008 20.4975V20.5017Z"
            fill="#EFEBD3" />
        <path
            d="M11.4633 23.12C11.4633 23.12 10.8704 23.3686 10.7003 23.562C10.5324 23.7554 10.3773 23.9637 10.3646 24.0381C10.3646 24.0381 10.2477 24.2251 10.5835 24.342C10.5835 24.342 10.2732 24.6735 10.3646 24.8159C10.3646 24.8159 10.592 24.9264 10.7683 24.8966C10.7683 24.8966 10.6493 25.6171 10.8619 25.7531C10.8619 25.7531 12.2964 25.3451 12.4472 25.1389C12.4472 25.1389 14.8083 26.1335 14.9103 26.0294C14.9103 26.0294 15.1696 25.6426 15.1292 25.3578C15.1292 25.3578 15.1207 24.8159 14.9826 24.7627C14.9826 24.7627 14.7807 24.7139 14.7425 24.6926C14.7425 24.6926 14.7573 24.2973 14.6022 24.2208C14.6022 24.2208 14.3365 24.0211 14.1198 24.0381C14.1198 24.0381 14.0836 23.6789 13.954 23.6534C13.954 23.6534 13.5927 23.3197 13.3866 23.3516C13.3866 23.3516 12.5238 23.137 12.2709 23.2411C12.2709 23.2411 12.0328 22.9351 11.4633 23.12Z"
            fill="#605C55" />
        <path
            d="M10.7768 20.9799C10.7768 20.9799 10.7981 20.03 12.3622 19.4456C12.3622 19.4456 13.4928 19.2288 14.2175 19.7282C14.2175 19.7282 15.4693 20.2106 15.8497 20.9502C15.8497 20.9502 16.0091 22.5356 14.921 22.4655C14.921 22.4655 12.9424 22.6248 12.4515 21.9512C12.4515 21.9512 11.1424 21.9618 10.779 20.9799H10.7768Z"
            fill="#525044" />
        <path
            d="M11.0489 20.4592C11.0489 20.4592 10.4666 20.6696 10.7173 22.0786C10.7173 22.0786 11.8118 22.5185 12.3622 21.7173C12.3622 21.7173 11.9691 20.5464 11.051 20.4592H11.0489Z"
            fill="#8B8C78" />
        <path
            d="M11.1339 20.3806C11.1339 20.3806 11.6949 19.5263 12.5492 19.3966C12.5492 19.3966 13.563 19.1905 14.5406 19.8174C14.5406 19.8174 15.1696 20.1553 14.5512 20.4762C14.5512 20.4762 12.3134 20.846 11.1317 20.3806H11.1339Z"
            fill="#8B8C78" />
        <path
            d="M10.7046 22.017C10.7046 22.017 11.6503 22.2061 11.9415 21.7939C11.9415 21.7939 11.4314 21.915 11.1955 21.6897C11.1955 21.6897 10.7237 21.3794 10.7046 20.9502C10.7046 20.9502 10.6855 20.3466 11.323 20.2446C11.323 20.2446 12.0435 20.081 13.0402 20.2085C13.1549 20.2233 13.2633 20.2786 13.3271 20.3679C13.3972 20.4677 13.5715 20.5846 13.9965 20.5549C13.9965 20.5549 14.3535 20.9055 14.9954 21.1117C15.0867 21.1414 15.6095 21.8916 15.1377 22.3549C15.1377 22.3549 14.9529 22.8522 14.039 23.2029C14.039 23.2029 13.7734 23.4218 13.2697 23.6725C13.2697 23.6725 12.0137 23.7065 11.7226 23.3623C11.7226 23.3623 11.5632 23.0902 11.3868 22.9563C10.9915 22.6588 10.813 22.5696 10.7046 22.0191V22.017Z"
            fill="#2D2B2C" />
        <path
            d="M13.4036 21.0883C13.4036 21.0883 13.7819 20.795 14.1516 21.1755C14.1516 21.1755 14.3769 21.4857 14.3025 22.0022C14.3025 22.0022 14.9125 22.1743 15.38 21.881C15.38 21.881 15.3715 22.1743 14.9188 22.2763C14.9188 22.2763 14.2537 22.2933 14.0688 22.1382C14.0688 22.1382 13.5587 22.2423 13.2761 21.7939C13.2761 21.7939 13.1571 21.2945 13.4036 21.0883Z"
            fill="#141110" />
        <path
            d="M10.7768 21.2073C10.7768 21.2073 11.3039 21.9469 11.8671 21.4474C11.8671 21.4474 12.0116 21.0521 11.5759 20.6717C11.5759 20.6717 11.1764 20.5867 11.1211 21.1457C11.1211 21.1457 11.102 21.3773 11.3209 21.4474C11.3209 21.4474 11.0659 21.4814 10.7747 21.2073H10.7768Z"
            fill="#141110" />
        <path
            d="M12.3134 22C12.3134 22 12.069 22.4654 12.2326 23.8085C12.2326 23.8085 12.4239 24.325 12.5322 23.8085C12.5322 23.8085 12.6406 22.1551 12.3134 22Z"
            fill="#141110" />
        <path
            d="M13.4036 22.5292C13.4036 22.5292 13.8541 23.3686 14.5767 22.7884C14.5767 22.7884 14.6404 22.6716 14.4237 22.6461C14.4237 22.6461 14.0858 22.9691 13.4036 22.5292Z"
            fill="#141110" />
        <path
            d="M10.7768 22.0765C10.7768 22.0765 10.7173 22.4633 11.0722 22.6185C11.0722 22.6185 11.5738 22.712 11.4803 22.3464C11.4803 22.3464 11.4038 22.3167 11.2529 22.3422C11.1636 22.3571 11.0722 22.3358 11.0106 22.2742C10.9384 22.2019 10.8533 22.0829 10.7747 22.0765H10.7768Z"
            fill="#141110" />
        <path
            d="M10.8746 25.445C10.8746 25.445 10.9617 24.9115 11.9776 24.9965C11.9776 24.9965 13.1486 24.9455 13.9753 25.428C13.9753 25.428 16.1281 26.5819 16.5404 26.5309C16.5404 26.5309 19.6006 25.9486 20.3445 25.7319C20.3445 25.7319 20.8779 25.887 20.5846 26.1633C20.5846 26.1633 19.6049 27.1005 19.1586 27.2195C19.1586 27.2195 18.5041 27.1324 18.2639 27.2195C18.2639 27.2195 17.4032 27.4256 16.5425 27.3576C16.5425 27.3576 15.1675 27.5914 14.6064 27.3725C14.6064 27.3725 13.614 27.0495 13.2612 27.1005C13.2612 27.1005 12.4579 27.1876 12.0966 26.9113C12.0966 26.9113 11.119 26.4289 11.1084 26.1016C11.1084 26.1016 10.711 25.7489 10.8746 25.4471V25.445Z"
            fill="#6E6443" />
        <path
            d="M11.374 25.0475C11.374 25.0475 11.9585 24.8414 12.4494 24.9094C12.4494 24.9094 13.784 25.0815 14.4917 25.5299C14.4917 25.5299 15.9219 26.0124 16.6105 26.4608C16.6105 26.4608 16.6785 26.5649 17.1439 26.3396C17.1439 26.3396 18.4722 26.0825 20.0151 25.7977C20.0151 25.7977 20.5209 25.6341 20.3997 25.8232C20.3997 25.8232 19.709 26.1165 19.0205 26.3737C19.0205 26.3737 17.4181 26.4608 17.1078 26.6839C17.1078 26.6839 16.5914 27.1493 16.16 26.9432C16.16 26.9432 15.7285 26.4438 15.3163 26.4268C15.3163 26.4268 14.4534 26.4778 14.3769 26.1165C14.3769 26.1165 13.7139 25.7722 13.3866 25.8572C13.3866 25.8572 12.766 25.8062 12.698 25.6341C12.698 25.6341 12.2135 25.7552 12.0945 25.5299C12.0945 25.5299 11.8671 25.6341 11.4484 25.4619C11.4484 25.4619 11.1828 25.2388 11.374 25.0497V25.0475Z"
            fill="#141110" />
        <path
            d="M10.0033 21.3284C9.75675 21.3029 9.51235 21.271 9.26796 21.2497C9.02144 21.2285 8.77704 21.2115 8.53052 21.203C8.03747 21.186 7.54443 21.1839 7.05138 21.2115C6.55834 21.2391 6.06742 21.2816 5.57862 21.356C5.33422 21.3879 5.09195 21.4346 4.84968 21.4793C4.60741 21.5239 4.36726 21.5855 4.12286 21.6238C4.59891 21.492 5.08558 21.4028 5.57437 21.3326C6.06317 21.2582 6.55621 21.2157 7.04926 21.186C7.5423 21.1562 8.03747 21.1562 8.53052 21.1732C8.77704 21.1817 9.02356 21.2009 9.27008 21.2221C9.5166 21.2476 9.76313 21.271 10.0033 21.3284Z"
            fill="#414042" />
        <path
            d="M10.0033 20.9799C9.59949 20.7206 9.15532 20.5272 8.69841 20.3806C8.58365 20.3466 8.46889 20.3062 8.35413 20.2764L8.00559 20.1829C7.77182 20.1319 7.53805 20.0767 7.30003 20.0384C6.82824 19.9513 6.34794 19.9045 5.86977 19.8642L5.14933 19.828C4.90919 19.8238 4.66904 19.8238 4.42889 19.8068C4.66904 19.7961 4.90919 19.8004 5.15146 19.8025L5.8719 19.8387C6.35219 19.879 6.83036 19.9258 7.30428 20.0129C7.7782 20.0937 8.24999 20.1999 8.70691 20.3529C8.82167 20.3891 8.9343 20.4337 9.04694 20.4741C9.15957 20.5187 9.27008 20.5633 9.38059 20.6143C9.59949 20.7142 9.81838 20.8247 10.0012 20.982L10.0033 20.9799Z"
            fill="#414042" />
        <path
            d="M10.3454 20.6696C10.2285 20.5761 10.1202 20.4741 10.0054 20.3806C9.89063 20.2849 9.77162 20.1957 9.65049 20.1085C9.40822 19.9343 9.15532 19.777 8.89179 19.6367C8.76216 19.5645 8.62402 19.505 8.49013 19.4412C8.35199 19.386 8.21598 19.3243 8.07359 19.2797C8.00346 19.2563 7.93333 19.2308 7.86107 19.2075L7.64643 19.1479C7.57417 19.1267 7.50192 19.1118 7.42966 19.0969C7.3574 19.0821 7.28515 19.0629 7.21289 19.0417C7.28727 19.0502 7.36165 19.0608 7.43391 19.0757C7.50829 19.0884 7.58055 19.1033 7.65281 19.1246L7.86958 19.1841C7.94183 19.2053 8.01196 19.2308 8.08209 19.2542C8.22448 19.2988 8.36049 19.3626 8.50076 19.4178C8.63464 19.4816 8.77278 19.5432 8.90242 19.6155C9.16594 19.7558 9.42309 19.9109 9.66536 20.0873C9.7865 20.1744 9.90551 20.2658 10.0203 20.3614C10.135 20.4571 10.2498 20.5548 10.3433 20.6717L10.3454 20.6696Z"
            fill="#414042" />
        <path
            d="M9.81201 22.7608C9.67599 22.7991 9.54211 22.8373 9.40822 22.8819C9.27646 22.9287 9.14469 22.9797 9.01718 23.0371C8.76003 23.1497 8.50714 23.273 8.26274 23.4111C8.01622 23.5471 7.7782 23.6959 7.54017 23.8447L7.18739 24.0763C7.07263 24.1571 6.95787 24.2378 6.83461 24.3079C7.05138 24.1273 7.29153 23.9785 7.5253 23.8213C7.76332 23.6704 8.00347 23.5237 8.24999 23.3877C8.49439 23.2496 8.74728 23.1221 9.00656 23.0094C9.13619 22.9521 9.26796 22.9032 9.40184 22.8564C9.53573 22.8139 9.67174 22.7672 9.81413 22.7629L9.81201 22.7608Z"
            fill="#414042" />
        <path
            d="M9.81201 22.0765C9.59311 22.1062 9.37422 22.1232 9.15745 22.1487C8.93855 22.1742 8.72178 22.204 8.50501 22.238C8.07147 22.3039 7.63793 22.3868 7.21077 22.4845C6.78148 22.5823 6.35857 22.697 5.9399 22.8309C5.51699 22.9542 5.1132 23.1284 4.69879 23.2751C4.89856 23.1816 5.10045 23.0923 5.30872 23.0201L5.619 22.9074L5.93353 22.8054C6.35219 22.6715 6.77723 22.5568 7.20652 22.4611C7.63581 22.3613 8.06722 22.2762 8.50289 22.2104C8.71966 22.1785 8.93855 22.1487 9.15745 22.1232C9.37634 22.0999 9.59524 22.0744 9.81626 22.0786L9.81201 22.0765Z"
            fill="#414042" />
        <path opacity="0.5"
            d="M15.2546 24.106C15.2546 24.106 15.0591 24.106 15.1696 24.4269C15.1696 24.4269 15.3396 24.5481 15.38 24.2824C15.38 24.2824 15.3885 24.1166 15.2546 24.106Z"
            fill="#414042" />
        <path opacity="0.5"
            d="M14.4428 23.834C14.4428 23.834 14.2919 23.834 14.3769 24.0826C14.3769 24.0826 14.5087 24.1761 14.5406 23.97C14.5406 23.97 14.5469 23.8404 14.4428 23.834Z"
            fill="#414042" />
        <path opacity="0.5"
            d="M16.0069 23.8871C16.0069 23.8871 15.7625 23.8871 15.9007 24.2909C15.9007 24.2909 16.1153 24.4418 16.1642 24.1082C16.1642 24.1082 16.1727 23.8999 16.0048 23.8871H16.0069Z"
            fill="#414042" />
        <path opacity="0.5"
            d="M16.6466 23.8191C16.6466 23.8191 16.4022 23.8191 16.5404 24.2229C16.5404 24.2229 16.755 24.3738 16.8039 24.0401C16.8039 24.0401 16.8124 23.8318 16.6445 23.8191H16.6466Z"
            fill="#414042" />
        <path opacity="0.5"
            d="M17.2948 23.6661C17.2948 23.6661 17.0865 23.6661 17.2056 24.0083C17.2056 24.0083 17.3862 24.1358 17.4287 23.8532C17.4287 23.8532 17.4372 23.6768 17.2948 23.6661Z"
            fill="#414042" />
        <path opacity="0.5"
            d="M16.976 22.8394C16.976 22.8394 16.7678 22.8394 16.8868 23.1816C16.8868 23.1816 17.0695 23.3091 17.1099 23.0264C17.1099 23.0264 17.1184 22.85 16.976 22.8394Z"
            fill="#414042" />
        <path opacity="0.5"
            d="M17.7198 22.6545C17.7198 22.6545 17.5116 22.6545 17.6306 22.9967C17.6306 22.9967 17.8134 23.1242 17.8537 22.8416C17.8537 22.8416 17.8622 22.6652 17.7198 22.6545Z"
            fill="#414042" />
        <path opacity="0.5"
            d="M16.3257 22.8394C16.3257 22.8394 16.0813 22.8394 16.2195 23.2432C16.2195 23.2432 16.4341 23.3941 16.483 23.0604C16.483 23.0604 16.4915 22.8522 16.3236 22.8394H16.3257Z"
            fill="#414042" />
        <path opacity="0.5"
            d="M15.6202 23.2113C15.6202 23.2113 15.3758 23.2113 15.5139 23.6151C15.5139 23.6151 15.7286 23.766 15.7774 23.4323C15.7774 23.4323 15.7859 23.2241 15.618 23.2113H15.6202Z"
            fill="#414042" />
        <path opacity="0.5"
            d="M15.0867 23.3643C15.0867 23.3643 14.87 23.3643 14.9932 23.7214C14.9932 23.7214 15.1824 23.8552 15.227 23.5598C15.227 23.5598 15.2355 23.3749 15.0867 23.3643Z"
            fill="#414042" />
        <path opacity="0.5"
            d="M14.6914 22.8373C14.6914 22.8373 14.5363 22.8373 14.6234 23.0944C14.6234 23.0944 14.7595 23.1901 14.7913 22.9775C14.7913 22.9775 14.7977 22.8458 14.6914 22.8373Z"
            fill="#414042" />
        <path opacity="0.5"
            d="M13.9391 23.2687C13.9391 23.2687 13.7882 23.2687 13.8732 23.5173C13.8732 23.5173 14.005 23.6108 14.0348 23.4047C14.0348 23.4047 14.0411 23.2772 13.937 23.2687H13.9391Z"
            fill="#414042" />
        <path opacity="0.5"
            d="M14.4194 23.3643C14.4194 23.3643 14.2813 23.3643 14.3599 23.5938C14.3599 23.5938 14.4811 23.6788 14.5087 23.4897C14.5087 23.4897 14.5151 23.3707 14.4194 23.3643Z"
            fill="#414042" />
        <path opacity="0.5"
            d="M11.2061 22.8628C11.2061 22.8628 11.0552 22.8628 11.1402 23.1114C11.1402 23.1114 11.272 23.2049 11.3039 22.9988C11.3039 22.9988 11.3103 22.8692 11.2061 22.8628Z"
            fill="#414042" />
        <path opacity="0.5"
            d="M10.8831 22.6269C10.8831 22.6269 10.745 22.6269 10.8236 22.8543C10.8236 22.8543 10.9447 22.9393 10.9724 22.7501C10.9724 22.7501 10.9766 22.6333 10.8831 22.6248V22.6269Z"
            fill="#414042" />
        <path opacity="0.5"
            d="M10.5813 22.7842C10.5813 22.7842 10.4623 22.7842 10.5303 22.9818C10.5303 22.9818 10.6345 23.0562 10.66 22.8926C10.66 22.8926 10.6642 22.7906 10.5835 22.7842H10.5813Z"
            fill="#414042" />
        <path opacity="0.5"
            d="M10.9702 23.0604C10.9702 23.0604 10.8321 23.0604 10.9107 23.2899C10.9107 23.2899 11.0319 23.375 11.0595 23.1858C11.0595 23.1858 11.0659 23.0668 10.9702 23.0604Z"
            fill="#414042" />
        <path opacity="0.5"
            d="M16.1472 24.8966C16.1472 24.8966 15.9411 24.8966 16.058 25.2345C16.058 25.2345 16.2386 25.362 16.279 25.0815C16.279 25.0815 16.2875 24.9072 16.1451 24.8966H16.1472Z"
            fill="#414042" />
        <path opacity="0.5"
            d="M16.9314 24.8966C16.9314 24.8966 16.7231 24.8966 16.8422 25.2409C16.8422 25.2409 17.0249 25.3684 17.0674 25.0857C17.0674 25.0857 17.0759 24.9094 16.9335 24.8966H16.9314Z"
            fill="#414042" />
        <path opacity="0.5"
            d="M17.5945 24.5438C17.5945 24.5438 17.3968 24.5438 17.5095 24.869C17.5095 24.869 17.6816 24.9901 17.722 24.7223C17.722 24.7223 17.7305 24.5544 17.5945 24.5438Z"
            fill="#414042" />
        <path
            d="M20.5081 25.1559C20.506 25.1559 20.5017 25.1559 20.4996 25.1537C18.351 23.3856 15.125 23.2878 15.0931 23.2857C15.0867 23.2857 15.0804 23.2793 15.0804 23.2729C15.0804 23.2666 15.0867 23.2602 15.0931 23.2602C15.125 23.2602 18.3574 23.3601 20.5145 25.1325C20.5209 25.1367 20.5209 25.1452 20.5145 25.1516C20.5124 25.1537 20.5081 25.1559 20.5039 25.1559H20.5081Z"
            fill="#414042" />
        <path
            d="M21.0862 23.2921C21.0862 23.2921 21.0819 23.2921 21.0798 23.2921C19.2266 22.2422 15.8922 22.5419 15.8582 22.544C15.8518 22.544 15.8454 22.5397 15.8433 22.5334C15.8433 22.527 15.8476 22.5206 15.8539 22.5185C15.8879 22.5142 19.2309 22.2167 21.0904 23.2687C21.0968 23.2729 21.0989 23.2793 21.0947 23.2857C21.0925 23.2899 21.0883 23.2921 21.084 23.2921H21.0862Z"
            fill="#414042" />
        <path
            d="M18.7952 25.9592C18.791 25.9592 18.7867 25.9592 18.7846 25.9528C18.062 24.8796 14.7255 23.9084 14.6915 23.8978C14.6851 23.8978 14.6808 23.8893 14.683 23.8808C14.683 23.8744 14.6936 23.8701 14.7 23.8723C14.734 23.8829 18.079 24.8562 18.808 25.9379C18.8122 25.9443 18.8101 25.9528 18.8037 25.9549C18.8016 25.9549 18.7995 25.9571 18.7973 25.9571L18.7952 25.9592Z"
            fill="#414042" />
        <path
            d="M17.3394 30.8854C17.3331 30.8854 17.3267 30.8811 17.3246 30.8747C16.789 28.2034 14.3663 24.1039 14.3408 24.0635C14.3365 24.0571 14.3408 24.0486 14.345 24.0465C14.3514 24.0422 14.3599 24.0465 14.362 24.0507C14.3854 24.0911 16.8124 28.1949 17.3479 30.8705C17.3479 30.8769 17.3458 30.8854 17.3373 30.8854H17.3394Z"
            fill="#414042" />
        <path
            d="M19.0693 29.3658C19.063 29.3658 19.0587 29.3616 19.0566 29.3552C18.5465 27.1131 15.55 24.6713 15.5203 24.6458C15.5139 24.6415 15.5139 24.633 15.5203 24.6267C15.5245 24.6203 15.533 24.6203 15.5394 24.6267C15.5691 24.6522 18.572 27.0983 19.0842 29.3488C19.0842 29.3552 19.0821 29.3637 19.0736 29.3637C19.0736 29.3637 19.0736 29.3637 19.0715 29.3637L19.0693 29.3658Z"
            fill="#414042" />
        <path
            d="M22.102 27.009C22.0978 27.009 22.0914 27.0069 22.0892 27.0005C21.6111 25.8125 20.3083 25.0666 19.2989 24.65C18.2044 24.1974 17.2119 24.0252 17.2013 24.0231C17.1949 24.0231 17.1886 24.0146 17.1907 24.0082C17.1928 24.0019 17.1971 23.9955 17.2056 23.9976C17.2162 23.9976 18.2108 24.174 19.3095 24.6267C20.3232 25.0453 21.6323 25.7955 22.1148 26.992C22.1169 26.9984 22.1148 27.0069 22.1084 27.009H22.1041H22.102Z"
            fill="#414042" />
        <path
            d="M22.6439 24.7606C22.6418 24.7606 22.6375 24.7606 22.6354 24.7563C21.2795 23.562 18.1194 23.3155 18.0875 23.3133C18.0811 23.3133 18.0748 23.307 18.0748 23.2985C18.0748 23.2921 18.0811 23.2857 18.0896 23.2857C18.1215 23.2878 21.2902 23.5344 22.6524 24.7351C22.6588 24.7393 22.6588 24.7478 22.6524 24.7542C22.6503 24.7563 22.646 24.7585 22.6418 24.7585L22.6439 24.7606Z"
            fill="#414042" />
        <path
            d="M20.7929 16.6679C20.7929 16.6679 20.4146 17.1375 19.6559 17.3118C19.6559 17.3118 18.9333 17.1035 19.0013 17.4861C19.0013 17.4861 19.0693 17.9366 19.4498 18.0046C19.4498 18.0046 20.1298 18.0089 20.5315 17.5753C20.931 17.1418 24.2739 17.7283 24.9965 17.7283C24.9965 17.7283 25.2027 16.6254 23.239 16.0069C23.239 16.0069 22.3081 15.7434 20.7929 16.6679Z"
            fill="#B59755" />
        <path
            d="M20.7376 17.3373C20.7376 17.3373 21.5771 16.0835 22.5079 16.007C22.5079 16.007 24.0827 16.4681 24.2654 17.2651C24.2654 17.2651 24.1783 18.1832 22.3719 18.5657C22.3719 18.5657 21.7301 18.6783 21.3901 18.5784C21.3901 18.5784 20.0682 17.9069 20.7397 17.3395L20.7376 17.3373Z"
            fill="#F1F2F2" />
        <path
            d="M21.9936 16.4235C21.9936 16.4235 21.3221 16.9463 21.1775 17.5562C21.1775 17.5562 20.9778 18.1789 21.7131 18.6167C21.7131 18.6167 21.6642 18.6273 21.4623 18.5741C21.3348 18.5401 21.1117 18.4913 20.9055 18.4063C20.9055 18.4063 20.3253 17.8898 20.5315 17.5732C20.5315 17.5732 21.0777 16.7274 21.9022 16.3002C21.9022 16.3002 22.2848 16.1195 21.9936 16.4192V16.4235Z"
            fill="#BCBEC0" />
        <path
            d="M22.0999 16.8251C22.0999 16.8251 21.2519 17.7602 22.2295 18.6677C22.2295 18.6677 23.6534 18.7272 24.1783 17.333C24.1783 17.333 24.1358 16.4766 22.7629 16.3044C22.7629 16.3044 22.527 16.3257 22.4442 16.4893C22.4442 16.4893 22.6949 16.4383 22.8607 16.6275C22.8607 16.6275 22.9478 16.7869 22.8522 16.9718C22.8522 16.9718 22.7608 17.0568 22.4718 17.0929C22.4718 17.0929 22.2125 17.1269 22.0999 16.8251Z"
            fill="#231F20" />
        <path
            d="M20.4486 18.47C20.4486 18.47 21.1202 18.8823 21.8427 19.0374C21.8427 19.0374 23.0477 19.0714 23.4621 18.7527C23.4621 18.7527 24.3738 18.2958 24.6501 17.6072C24.6501 17.6072 24.6692 17.5264 24.6395 17.4329C24.6395 17.4329 24.5141 17.4584 24.3335 17.7028C24.3335 17.7028 23.7979 18.1555 23.2411 18.3106C23.2411 18.3106 22.0595 18.8589 20.9671 18.4339C20.9671 18.4339 20.5251 18.3616 20.4465 18.4679L20.4486 18.47Z"
            fill="#58595B" />
        <path
            d="M21.6557 18.6188C21.6557 18.6188 20.8673 18.3319 20.863 17.6433C20.863 17.6433 21.033 16.9845 22.0659 16.313C22.0659 16.313 23.3261 16.1111 24.0657 17.2459C24.0657 17.2459 23.7979 17.943 22.3698 18.5635C22.3698 18.5635 23.6832 18.4998 24.6522 17.4754C24.6522 17.4754 24.3675 15.9453 22.3273 15.8348C22.3273 15.8348 21.5006 15.6265 20.0894 17.4861C20.0894 17.4861 20.0894 18.0556 20.4507 18.47C20.4507 18.47 20.8141 18.5508 21.6578 18.6188H21.6557Z"
            fill="#231F20" />
        <path
            d="M14.9847 13.5204C14.9847 13.5204 15.8412 14.1453 15.2355 16.0069C15.2355 16.0069 14.9592 16.6955 14.226 16.8676C14.226 16.8676 14.0454 17.3118 12.8574 17.4861C12.8574 17.4861 11.8012 17.1567 12.0966 16.6679C12.0966 16.6679 12.2007 14.8678 13.2612 14.5257C13.2612 14.5257 14.4067 14.7743 14.6978 14.1474C14.6978 14.1474 14.9316 13.8265 14.989 13.5226L14.9847 13.5204Z"
            fill="#B59755" />
        <path
            d="M13.4843 16.6615C13.4843 16.6615 14.6893 16.653 15.1335 15.8348C15.1335 15.8348 15.1207 15.21 14.6553 14.7318C14.6553 14.7318 14.2643 14.3705 13.6055 14.4726C13.6055 14.4726 13.1061 14.5002 12.6874 15.4863C12.6874 15.4863 12.579 15.9028 12.7341 16.4192C12.7341 16.4192 13.0211 16.721 13.4865 16.6594L13.4843 16.6615Z"
            fill="#F1F2F2" />
        <path
            d="M13.818 14.6405C13.818 14.6405 13.3356 14.8168 13.2591 15.6053C13.2591 15.6053 13.2484 16.449 13.6671 16.6445C13.6671 16.6445 14.1623 16.7699 14.5639 16.4426C14.5639 16.4426 15.244 15.9071 15.1887 15.4863C15.1887 15.4863 15.0825 15.0846 14.6107 14.6915C14.6107 14.6915 14.2303 14.3557 13.8201 14.6426L13.818 14.6405Z"
            fill="#231F20" />
        <path
            d="M12.6853 16.0218C12.6853 16.0218 12.8085 16.0069 12.8808 16.1621C12.8808 16.1621 13.0274 16.3703 13.1719 16.3873C13.1719 16.3873 13.7776 16.3257 13.8562 16.4298C13.8562 16.4298 14.0114 16.568 13.8562 16.5935C13.8562 16.5935 13.3802 16.8528 12.6725 16.5149C12.6725 16.5149 12.4855 16.1621 12.6853 16.0239V16.0218Z"
            fill="#A7A9AC" />
        <path
            d="M12.732 15.5627C12.732 15.5627 12.4196 16.7103 13.7011 16.6657C13.7011 16.6657 13.1316 16.8952 12.6173 16.4702C12.5939 16.4511 12.5811 16.4256 12.5769 16.3958C12.5578 16.2577 12.5216 15.8156 12.7363 15.3162C12.7363 15.3162 12.7915 15.4289 12.7341 15.5627H12.732Z"
            fill="#58595B" />
        <path
            d="M14.4216 15.1207C14.4216 15.1207 14.4874 14.9953 14.6702 15.0017C14.6702 15.0017 15.0081 15.0761 15.0251 15.3524C15.0251 15.3524 14.887 15.6881 14.5597 15.584C14.5597 15.584 14.2409 15.4884 14.4216 15.1186V15.1207Z"
            fill="white" />
        <path
            d="M13.1826 15.2525C13.1826 15.2525 13.4758 15.3821 13.8371 15.261C13.8371 15.261 14.0284 15.1186 13.9476 14.904C13.9476 14.904 13.9115 14.6851 13.4801 14.6766C13.4801 14.6766 12.9934 14.7786 13.1826 15.2525Z"
            fill="white" />
        <path
            d="M12.7512 15.4565C12.7512 15.4565 13.2506 14.5958 13.6629 14.6468C13.6629 14.6468 14.4896 14.5087 15.023 15.4565C15.023 15.4565 15.1909 16.0239 13.5715 16.6445C13.5715 16.6445 13.4121 16.7338 13.7861 16.704C13.7861 16.704 14.4832 16.7423 15.0209 16.0835C15.0209 16.0835 15.3226 15.7222 15.3226 15.4884C15.3226 15.4884 15.1675 14.8848 14.7425 14.6383C14.7425 14.6383 14.3939 14.2749 13.6969 14.3004C13.6969 14.3004 13.2059 14.2494 12.8192 15.023C12.8192 15.023 12.681 15.329 12.7512 15.4544V15.4565Z"
            fill="#231F20" />
    </g>
    <g opacity="0.8">
        <path
            d="M23.749 31.9501H22V29.147H23.749V22.6779H30.4349C32.847 22.6779 34.6555 23.2921 35.8626 24.5226C37.0676 25.7531 37.6712 27.7423 37.6712 30.4901C37.6712 33.238 37.0676 35.0147 35.8626 36.2536C34.6555 37.4926 32.847 38.1111 30.4349 38.1111H23.749V31.9523V31.9501ZM29.9078 35.1379C30.8026 35.1379 31.5209 35.0104 32.0649 34.7554C32.6068 34.5004 33.0234 34.0371 33.3103 33.3655C33.5972 32.694 33.7417 31.7355 33.7417 30.4901C33.7417 29.2448 33.6099 28.2502 33.3464 27.5552C33.0829 26.8603 32.6748 26.3694 32.1244 26.0825C31.574 25.7956 30.8344 25.6511 29.9078 25.6511H27.6084V29.1491H30.6283V31.9523H27.6084V35.1401H29.9078V35.1379Z"
            fill="white" />
    </g>
    <path fill-rule="evenodd" clip-rule="evenodd"
        d="M23.6428 22.5717H30.435C32.8639 22.5717 34.7046 23.1903 35.9385 24.4482L35.9386 24.4482C37.1719 25.7076 37.7775 27.7303 37.7775 30.4901C37.7775 33.2529 37.1705 35.0614 35.9389 36.3277L35.9388 36.3278C34.7049 37.5943 32.8641 38.2173 30.435 38.2173H23.6428V32.0564H21.8938V29.0407H23.6428V22.5717ZM23.8554 22.7842V29.2533H22.1063V31.8439H23.8554V38.0048H30.435C32.8299 38.0048 34.6063 37.391 35.7865 36.1796C36.9649 34.968 37.565 33.2231 37.565 30.4901C37.565 27.7542 36.9635 25.7985 35.7868 24.5969C34.6065 23.3939 32.8301 22.7842 30.435 22.7842H23.8554ZM27.5022 25.5448H29.9079C30.8439 25.5448 31.6024 25.6905 32.1736 25.9882C32.7514 26.2894 33.1749 26.8032 33.4458 27.5176C33.716 28.2301 33.848 29.2397 33.848 30.4901C33.848 31.7412 33.7032 32.7164 33.4081 33.4073C33.1132 34.0975 32.6805 34.5832 32.1102 34.8515L32.1101 34.8516C31.569 35.1052 30.8691 35.2338 30.0142 35.2436V35.2463H27.5022V31.846H30.5221V29.2554H27.5022V25.5448ZM29.8016 35.0338V35.0317H29.9079C30.7939 35.0317 31.495 34.9052 32.0197 34.6592C32.5333 34.4175 32.9337 33.9767 33.2126 33.3238C33.4913 32.6715 33.6355 31.7297 33.6355 30.4901C33.6355 29.2498 33.5039 28.2702 33.2471 27.5929C32.9909 26.9174 32.5984 26.4493 32.0754 26.1767C31.5457 25.9006 30.825 25.7573 29.9079 25.7573H27.7147V29.0429H30.7346V32.0585H27.7147V35.0338H29.8016Z"
        fill="white" />
</svg>
