<svg width="38" height="38" viewBox="0 0 38 38" fill="none" xmlns="http://www.w3.org/2000/svg">
    <path
        d="M18.9995 37.9995C29.4927 37.9995 37.999 29.4931 37.999 19C37.999 8.50686 29.4927 0.000488281 18.9995 0.000488281C8.50637 0.000488281 0 8.50686 0 19C0 29.4931 8.50637 37.9995 18.9995 37.9995Z"
        fill="#627EEA" />
    <path d="M19.5909 4.75049V15.2833L28.4934 19.2614L19.5909 4.75049Z" fill="white" fill-opacity="0.602" />
    <path d="M19.5909 4.75049L10.6873 19.2614L19.5909 15.2833V4.75049Z" fill="white" />
    <path d="M19.5909 26.0868V33.2437L28.4993 20.9189L19.5909 26.0868Z" fill="white" fill-opacity="0.602" />
    <path d="M19.5909 33.2437V26.0856L10.6873 20.9189L19.5909 33.2437Z" fill="white" />
    <path d="M19.5909 24.4303L28.4934 19.2613L19.5909 15.2856V24.4303Z" fill="white" fill-opacity="0.2" />
    <path d="M10.6873 19.2613L19.5909 24.4303V15.2856L10.6873 19.2613Z" fill="white" fill-opacity="0.602" />
</svg>
