<svg fill="none" height="24" viewBox="0 0 24 24" width="24" xmlns="http://www.w3.org/2000/svg" >
    <g clip-path="url(#base__a)">
        <path d="M24 0H0v24h24z" fill="#00F" />
        <path d="M4 5.517c0-.52 0-.78.098-.98a.96.96 0 0 1 .44-.44C4.738 4 4.998 4 5.517 4h12.966c.52 0 .78 0 .98.098a.97.97 0 0 1 .439.44c.098.2.098.46.098.979v12.966c0 .52 0 .78-.098.98a.96.96 0 0 1-.44.439c-.2.098-.46.098-.979.098H5.517c-.52 0-.78 0-.98-.098a.96.96 0 0 1-.439-.44C4 19.263 4 19.002 4 18.484z" fill="#fff" />
    </g>
    <defs>
        <clipPath id="base__a">
            <path d="M0 0h24v24H0z" fill="#fff" />
        </clipPath>
    </defs>
</svg>
